<svg width="24" height="24" viewBox="0 0 24 24" fill="none" xmlns="http://www.w3.org/2000/svg">
<g id="Interface / Bookmark">
<path id="Vector (Stroke)" d="M17 7.19727C17 6.62182 16.9997 6.24974 16.9766 5.9668C16.9544 5.69595 16.9167 5.59521 16.8916 5.5459C16.7963 5.35882 16.6424 5.20581 16.4531 5.10938C16.4036 5.08414 16.3032 5.04562 16.0322 5.02344C15.7491 5.0003 15.3764 5 14.7998 5H9.2002C8.62366 5 8.25124 5.00127 7.96778 5.02442C7.69598 5.04662 7.59528 5.08422 7.5459 5.10938C7.35779 5.20524 7.20524 5.35779 7.10938 5.5459C7.08422 5.59528 7.04662 5.69598 7.02442 5.96778C7.00127 6.25124 7 6.62366 7 7.2002V16.6856C7 17.3798 7.00054 17.852 7.02344 18.2041C7.04693 18.5647 7.0897 18.6769 7.10254 18.7031C7.2917 19.0889 7.70575 19.3106 8.13184 19.2539C8.16091 19.25 8.27768 19.2226 8.59082 19.042C8.8965 18.8657 9.28952 18.6048 9.86719 18.2197L10.1631 18.0225C10.4484 17.8354 10.7145 17.6761 11 17.5752C11.6467 17.3467 12.3523 17.3467 12.999 17.5752C13.3802 17.7099 13.7265 17.9495 14.1318 18.2197C14.7093 18.6047 15.1025 18.8659 15.4082 19.042C15.7213 19.2224 15.8388 19.25 15.8682 19.2539C16.2944 19.3106 16.7094 19.0889 16.8984 18.7031C16.9114 18.6766 16.9531 18.5633 16.9766 18.2031C16.9994 17.8511 17 17.3794 17 16.6856V7.19727ZM19 16.6856C19 17.3518 19.0008 17.9006 18.9727 18.333C18.9451 18.7565 18.8846 19.1928 18.6934 19.583C18.1258 20.741 16.8824 21.4064 15.6045 21.2363C15.1741 21.1791 14.7781 20.9874 14.4102 20.7754C14.0344 20.5589 13.5774 20.2537 13.0225 19.8838C12.5271 19.5536 12.4223 19.4925 12.333 19.4609C12.1174 19.3847 11.8816 19.3847 11.666 19.4609C11.5771 19.4924 11.4731 19.5528 10.9795 19.8818L10.9766 19.8838C10.4219 20.2535 9.96527 20.5589 9.58985 20.7754C9.22223 20.9873 8.82616 21.179 8.39551 21.2363C7.11748 21.4064 5.87418 20.7409 5.30665 19.583C5.11543 19.1928 5.05489 18.7565 5.02735 18.333C4.99925 17.9007 5 17.3519 5 16.6856V7.2002C5 6.65664 4.99893 6.18845 5.03028 5.80469C5.06258 5.40942 5.13437 5.01605 5.32715 4.6377C5.61475 4.07334 6.07334 3.61475 6.6377 3.32715C7.01605 3.13437 7.40941 3.06258 7.80469 3.03028C8.18845 2.99893 8.65664 3 9.2002 3H14.7998C15.3433 3 15.8118 2.99893 16.1953 3.03028C16.5905 3.06261 16.9832 3.13448 17.3613 3.32715C17.9246 3.61418 18.3847 4.07225 18.6729 4.6377C18.8655 5.01581 18.9375 5.40889 18.9697 5.80372C19.0011 6.187 19 6.6548 19 7.19727V16.6856Z" fill="white"/>
</g>
</svg>
