<svg width="14" height="19" viewBox="0 0 14 19" fill="none" xmlns="http://www.w3.org/2000/svg">
<path d="M12 4.19727C12 3.62182 11.9997 3.24974 11.9766 2.9668C11.9544 2.69595 11.9167 2.59521 11.8916 2.5459C11.7963 2.35882 11.6424 2.20581 11.4531 2.10938C11.4036 2.08414 11.3032 2.04562 11.0322 2.02344C10.7491 2.0003 10.3764 2 9.79981 2H4.2002C3.62366 2 3.25124 2.00127 2.96778 2.02442C2.69598 2.04662 2.59528 2.08422 2.5459 2.10938C2.35779 2.20524 2.20524 2.35779 2.10938 2.5459C2.08422 2.59528 2.04662 2.69598 2.02442 2.96778C2.00127 3.25124 2 3.62366 2 4.2002V13.6856C2 14.3798 2.00054 14.852 2.02344 15.2041C2.04693 15.5647 2.0897 15.6769 2.10254 15.7031C2.2917 16.0889 2.70575 16.3106 3.13184 16.2539C3.16091 16.25 3.27768 16.2226 3.59082 16.042C3.8965 15.8657 4.28952 15.6048 4.86719 15.2197L5.16309 15.0225C5.44837 14.8354 5.71447 14.6761 6 14.5752C6.64674 14.3467 7.35229 14.3467 7.99903 14.5752C8.38016 14.7099 8.72646 14.9495 9.13184 15.2197C9.70927 15.6047 10.1025 15.8659 10.4082 16.042C10.7213 16.2224 10.8388 16.25 10.8682 16.2539C11.2944 16.3106 11.7094 16.0889 11.8984 15.7031C11.9114 15.6766 11.9531 15.5633 11.9766 15.2031C11.9994 14.8511 12 14.3794 12 13.6856V4.19727ZM14 13.6856C14 14.3518 14.0008 14.9006 13.9727 15.333C13.9451 15.7565 13.8846 16.1928 13.6934 16.583C13.1258 17.741 11.8824 18.4064 10.6045 18.2363C10.1741 18.1791 9.77809 17.9874 9.41016 17.7754C9.0344 17.5589 8.57736 17.2537 8.02247 16.8838C7.52713 16.5536 7.42231 16.4925 7.33301 16.4609C7.11738 16.3847 6.88165 16.3847 6.66602 16.4609C6.57714 16.4924 6.47308 16.5528 5.9795 16.8818L5.97657 16.8838C5.42194 17.2535 4.96527 17.5589 4.58985 17.7754C4.22223 17.9873 3.82616 18.179 3.39551 18.2363C2.11748 18.4064 0.874182 17.7409 0.306645 16.583C0.115426 16.1928 0.0548947 15.7565 0.0273481 15.333C-0.000747463 14.9007 4.29161e-06 14.3519 4.38329e-06 13.6856V4.2002C4.38329e-06 3.65664 -0.00106671 3.18845 0.0302778 2.80469C0.062581 2.40942 0.134373 2.01605 0.327153 1.6377C0.614751 1.07334 1.07334 0.614752 1.6377 0.327153C2.01605 0.134373 2.40941 0.0625811 2.80469 0.0302779C3.18845 -0.00106662 3.65664 4.47149e-06 4.2002 4.47149e-06H9.79981C10.3433 4.47149e-06 10.8118 -0.00107425 11.1953 0.0302779C11.5905 0.06261 11.9832 0.134481 12.3613 0.327153C12.9246 0.614181 13.3847 1.07225 13.6729 1.6377C13.8655 2.01581 13.9375 2.40889 13.9697 2.80372C14.0011 3.187 14 3.6548 14 4.19727V13.6856Z" fill="white"/>
</svg>
