<svg width="23" height="22" viewBox="0 0 23 22" fill="none" xmlns="http://www.w3.org/2000/svg">
<path d="M21.6093 7.30333L15.1559 6.74333L12.6359 0.81C12.1826 -0.27 10.6359 -0.27 10.1826 0.81L7.66261 6.75667L1.22261 7.30333C0.0492767 7.39667 -0.430724 8.86333 0.46261 9.63667L5.35594 13.8767L3.88928 20.17C3.62261 21.3167 4.86261 22.2233 5.87594 21.61L11.4093 18.2767L16.9426 21.6233C17.9559 22.2367 19.1959 21.33 18.9293 20.1833L17.4626 13.8767L22.3559 9.63667C23.2493 8.86333 22.7826 7.39667 21.6093 7.30333ZM11.4093 15.7833L6.39594 18.81L7.72928 13.1033L3.30261 9.26333L9.14261 8.75667L11.4093 3.38333L13.6893 8.77L19.5293 9.27667L15.1026 13.1167L16.4359 18.8233L11.4093 15.7833Z" fill="#737373"/>
</svg>
