<svg width="30" height="30" viewBox="0 0 30 30" fill="none" xmlns="http://www.w3.org/2000/svg">
<path d="M3.33301 0.5H26.667C27.4183 0.500086 28.1386 0.798802 28.6699 1.33008C29.2012 1.86135 29.4999 2.58168 29.5 3.33301V26.667C29.4999 27.4183 29.2012 28.1386 28.6699 28.6699C28.1386 29.2012 27.4183 29.4999 26.667 29.5H3.33301C2.58168 29.4999 1.86135 29.2012 1.33008 28.6699C0.798802 28.1386 0.500086 27.4183 0.5 26.667V3.33301C0.500086 2.58168 0.798802 1.86135 1.33008 1.33008C1.86135 0.798802 2.58168 0.500086 3.33301 0.5ZM2.83301 27.167H27.167V2.83301H2.83301V27.167ZM22.833 12.167V22.833H20.5V12.167H22.833ZM16.167 7.16699V22.833H13.833V7.16699H16.167ZM9.5 15.5V22.833H7.16699V15.5H9.5Z" fill="#31A0FE" stroke="#31A0FE"/>
</svg>
