<svg width="34" height="27" viewBox="0 0 34 27" fill="none" xmlns="http://www.w3.org/2000/svg">
<path d="M3.33301 0.5H30C31.5571 0.5 32.8328 1.77596 32.833 3.33301V23.333C32.833 24.8902 31.5572 26.167 30 26.167H3.33301C1.77596 26.1668 0.5 24.8901 0.5 23.333V3.33301C0.500178 1.77607 1.77607 0.500178 3.33301 0.5ZM29.7354 6.24219L16.666 14.4102L3.59863 6.24219L2.83301 5.76465V23.833H30.5V5.76465L29.7354 6.24219ZM3.06836 3.75781L16.4014 12.0908L16.667 12.2559L16.9316 12.0908L30.2646 3.75781L31.7432 2.83301H1.58984L3.06836 3.75781Z" fill="#EC5C2E" stroke="#EC5C2E"/>
</svg>
